# AST/ASF file generated using VICON BodyLanguage
# -----------------------------------------------
:version 1.10
:name VICON
:units
  mass 1.0
  length 0.45
  angle deg
:documentation
   .ast/.asf automatically generated from VICON data using
   VICON BodyBuilder and BodyLanguage model FoxedUp or BRILLIANT.MOD
:root
   order TX TY TZ RX RY RZ
   axis XYZ
   position 0 0 0  
   orientation 0 0 0 
:bonedata
  begin
     id 1 
     name lhipjoint
     direction 0.646657 -0.683706 0.338203 
     length 2.4948 
     axis 0 0 0  XYZ
  end
  begin
     id 2 
     name lfemur
     direction 0.34202 -0.939693 0  
     length 6.79491  
     axis 0 0 20  XYZ
    dof rx ry rz
    limits (-160.0 20.0)
           (-70.0 70.0)
           (-60.0 70.0)
  end
  begin
     id 3 
     name ltibia
     direction 0.34202 -0.939693 0   
     length 7.56807   
     axis 0 0 20   XYZ
    dof rx
    limits (-10.0 170.0)
  end
  begin
     id 4 
     name lfoot
     direction 0.0679796 -0.186772 0.980048   
     length 2.53018   
     axis -90 7.62852e-016 20   XYZ
    dof rx rz
    limits (-45.0 90.0)
           (-70.0 20.0)
  end
  begin
     id 5 
     name ltoes
     direction 1.53625e-011 -4.21881e-011 1   
     length 1.26912   
     axis -90 7.62852e-016 20   XYZ
    dof rx
    limits (-90.0 20.0)
  end
  begin
     id 6 
     name rhipjoint
     direction -0.618868 -0.704065 0.348274   
     length 2.42265  
     axis 0 0 0  XYZ 
  end
  begin
     id 7 
     name rfemur
     direction -0.34202 -0.939693 0   
     length 6.73814   
     axis 0 0 -20   XYZ
    dof rx ry rz
    limits (-160.0 20.0)
           (-70.0 70.0)
           (-70.0 60.0)
  end
  begin
     id 8 
     name rtibia
     direction -0.34202 -0.939693 0   
     length 7.66799   
     axis 0 0 -20   XYZ
    dof rx
    limits (-10.0 170.0)
 end
 begin
     id 9 
     name rfoot
     direction -0.0727352 -0.199838 0.977125   
     length 2.57224  
     axis -90 -7.62852e-016 -20   XYZ
    dof rx rz
    limits (-45.0 90.0)
           (-20.0 70.0)
  end
  begin
     id 10 
     name rtoes
     direction -1.53501e-011 -4.21858e-011 1   
     length 1.28858   
     axis -90 -7.62852e-016 -20   XYZ
    dof rx
    limits (-90.0 20.0)
  end
  begin
     id 11 
     name lowerback
     direction -0.0172471 0.995767 -0.0902851   
     length 2.20206   
     axis 0 0 0   XYZ
    dof rx ry rz
    limits (-20.0 45.0)
           (-30.0 30.0)
           (-30.0 30.0)
  end
  begin
     id 12 
     name upperback
     direction -0.000110737 0.999714 0.0239043   
     length 2.19523   
     axis 0 0 0   XYZ
    dof rx ry rz
    limits (-20.0 45.0)
           (-30.0 30.0)
           (-30.0 30.0)
  end
  begin
     id 13 
     name thorax
     direction 0.00704869 0.997783 0.0661741   
     length 2.21977   
     axis 0 0 0   XYZ
    dof rx ry rz
    limits (-20.0 45.0)
           (-30.0 30.0)
           (-30.0 30.0)
  end
  begin
     id 14 
     name lowerneck
     direction -0.00407501 0.995527 0.0943846   
     length 1.83142   
     axis 0 0 0   XYZ
    dof rx ry rz
    limits (-20.0 45.0)
           (-30.0 30.0)
           (-30.0 30.0)
  end
  begin
     id 15 
     name upperneck
     direction 0.0640586 0.986486 -0.150807   
     length 1.84616   
     axis 0 0 0   XYZ
    dof rx ry rz
    limits (-20.0 45.0)
           (-30.0 30.0)
           (-30.0 30.0)
  end
  begin
     id 16
     name head
     direction 0.0188017 0.99791 -0.0618239  
     length 1.85932  
     axis 0 0 0   XYZ
    dof rx ry rz
    limits (-20.0 45.0)
           (-30.0 30.0)
           (-30.0 30.0)
  end
  begin
     id 17 
     name lclavicle
     direction 0.976074 0.206905 0.066852  
     length 3.81043  
     axis 0 0 0   XYZ
    dof ry rz
    limits (-20.0 10.0)
           (0.0 20.0)
  end
  begin
     id 18 
     name lhumerus
     direction 1 -4.48971e-011 1.86916e-027   
     length 5.37587   
     axis 180 -30 -90   XYZ
    dof rx ry rz
    limits (-60.0 90.0)
           (-90.0 90.0)
           (-90.0 90.0)
  end
  begin
     id 19
     name lradius
     direction 1 -4.48968e-011 1.69187e-027   
     length 3.35977   
     axis 180 -30 -90   XYZ
    dof rx
    limits (-10.0 170.0)
  end
  begin
     id 20
     name lwrist
     direction 1 -4.48968e-011 5.8978e-027   
     length 1.67988   
     axis -3.27506e-015 90 90   XYZ
    dof ry
    limits (-180.0 0.0)
 end
  begin
     id 21 
     name lhand
     direction 1 -4.49028e-011 1.18071e-026   
     length 0.561859   
     axis -7.52654e-015 90 90   XYZ
    dof rx rz
    limits (-90.0 90.0)
           (-45.0 45.0)
  end
  begin
     id 22 
     name lfingers
     direction 1 -4.48927e-011 2.35758e-026   
     length 0.452985   
     axis -1.50534e-014 90 90   XYZ
    dof rx
    limits (0.0 90.0)
  end
  begin
     id 23
     name lthumb
     direction 0.707107 -6.34898e-011 0.707107   
     length 0.650399   
     axis -90 45 5.69224e-014   XYZ
    dof rx rz
    limits (-45.0 45.0)
           (-45.0 45.0)
  end
  begin
     id 24 
     name rclavicle
     direction -0.988403 0.151789 0.00439714   
     length 3.6942  
     axis 0 0 0   XYZ 
    dof ry rz
    limits (-10.0 20.0)
           (-20.0 0.0)
  end
  begin
     id 25 
     name rhumerus
     direction -1 -4.48978e-011 1.62495e-027  
     length 5.22819   
     axis 180 30 90   XYZ
    dof rx ry rz
    limits (-90.0 60.0)
           (-90.0 90.0)
           (-90.0 90.0)
  end
  begin
     id 26 
     name rradius
     direction -1 -4.48961e-011 3.47796e-027   
     length 3.40764   
     axis 180 30 90   XYZ
    dof rx
    limits (-10.0 170.0)
  end
  begin
     id 27 
     name rwrist
     direction -1 -4.48949e-011 5.89602e-027   
     length 1.70382   
     axis -3.27506e-015 -90 -90   XYZ
    dof ry
    limits (-180.0 0.0)
  end
  begin
     id 28
     name rhand
     direction -1 -4.48977e-011 1.17973e-026   
     length 0.583255   
     axis -7.52654e-015 -90 -90   XYZ
    dof rx rz
    limits (-90.0 90.0)
           (-45.0 45.0)
  end
  begin
     id 29
     name rfingers
     direction -1 -4.49099e-011 2.36408e-026   
     length 0.470235   
     axis -1.50534e-014 -90 -90   XYZ
    dof rx
    limits (0.0 90.0)
  end
  begin
     id 30
     name rthumb
     direction -0.707107 -6.35011e-011 0.707107   
     length 0.675167   
     axis -90 -45 -5.69224e-014   XYZ
    dof rx rz
    limits (-45.0 45.0)
           (-45.0 45.0)
  end
:hierarchy
  begin
    root lhipjoint rhipjoint lowerback
    lhipjoint lfemur
    lfemur ltibia
    ltibia lfoot
    lfoot ltoes
    rhipjoint rfemur
    rfemur rtibia
    rtibia rfoot
    rfoot rtoes
    lowerback upperback
    upperback thorax
    thorax lowerneck lclavicle rclavicle
    lowerneck upperneck
    upperneck head
    lclavicle lhumerus
    lhumerus lradius
    lradius lwrist
    lwrist lhand lthumb
    lhand lfingers
    rclavicle rhumerus
    rhumerus rradius
    rradius rwrist
    rwrist rhand rthumb
    rhand rfingers
  end

#!OML:ASF G:\JayActor3\Patient Classification 1\Patient 1\Session 2\male.ASF
:FULLY-SPECIFIED
:DEGREES
1
root 48.3804 16.6683 -8.45989 8.06165 -75.0415 -8.41081
lowerback -2.45938 1.191 2.46905
upperback 4.30895 1.40812 0.21742
thorax 5.9045 0.784781 -1.05196
lowerneck -10.1572 -6.17739 -5.71528
upperneck 4.78298 -8.54339 11.9704
head 3.86863 -3.83723 4.01286
rclavicle -4.24902e-015 -3.97569e-016
rhumerus -29.5012 -10.837 -82.2376
rradius 27.9665
rwrist -2.83625
rhand -24.9889 4.50214
rfingers 7.12502
rthumb 1.52233 -25.4722
lclavicle -4.24902e-015 -3.97569e-016
lhumerus -31.9019 10.1981 81.3242
lradius 27.3414
lwrist 11.0709
lhand -17.2893 16.5771
lfingers 7.12502
lthumb 8.95623 46.367
rfemur -7.88173 -12.7563 26.7815
rtibia 30.7164
rfoot -26.8564 -10.2854
rtoes 22.7052
lfemur -12.2125 4.21189 -11.6305
ltibia 29.3696
lfoot -11.5803 -0.738574
ltoes -17.9768
2
root 48.3819 16.6621 -8.47053 8.23609 -75.0255 -8.68568
lowerback -2.37213 1.19914 2.5313
upperback 4.33053 1.41542 0.247027
thorax 5.87855 0.789992 -1.05702
lowerneck -10.0987 -6.18034 -5.70317
upperneck 4.80335 -8.5518 11.9597
head 3.8648 -3.84292 4.00827
rclavicle -2.80908e-014 3.37934e-015
rhumerus -29.5127 -10.8662 -82.2012
rradius 27.9177
rwrist -2.76834
rhand -24.9623 4.46492
rfingers 7.12502
rthumb 1.54795 -25.5092
lclavicle -2.80908e-014 3.37934e-015
lhumerus -32.0715 9.93038 81.4256
lradius 27.5664
lwrist 11.4938
lhand -17.299 16.7835
lfingers 7.12502
lthumb 8.94678 46.5738
rfemur -7.82878 -12.8261 26.8744
rtibia 30.7683
rfoot -26.8513 -10.2548
rtoes 22.5959
lfemur -12.3949 4.46975 -11.5372
ltibia 29.9255
lfoot -11.9983 -0.693955
ltoes -18.9489
3
root 48.3863 16.6583 -8.47968 8.28613 -74.9909 -8.76948
lowerback -2.3676 1.20834 2.54924
upperback 4.33482 1.42564 0.267121
thorax 5.88088 0.795327 -1.04544
lowerneck -9.96937 -6.17267 -5.63936
upperneck 4.81665 -8.5553 11.9536
head 3.84476 -3.84779 3.99904
rclavicle 7.19973e-014 -2.48481e-015
rhumerus -29.5351 -10.8985 -82.1437
rradius 27.8608
rwrist -2.75821
rhand -24.9591 4.48099
rfingers 7.12502
rthumb 1.55107 -25.4931
lclavicle 7.19973e-014 -2.48481e-015
lhumerus -32.1263 10.1489 81.3887
lradius 27.4946
lwrist 11.2587
lhand -17.2986 16.6797
lfingers 7.12502
lthumb 8.94721 46.47
rfemur -7.8366 -12.8861 26.927
rtibia 30.8041
rfoot -26.8646 -10.227
rtoes 22.6279
lfemur -12.6901 4.72634 -11.5213
ltibia 30.5394
lfoot -12.3462 -0.550596
ltoes -20.0077
4
root 48.3865 16.6551 -8.48618 8.3323 -75.0059 -8.89928
lowerback -2.34384 1.20275 2.57096
upperback 4.38414 1.41426 0.293811
thorax 5.91885 0.790241 -1.03059
lowerneck -10.0061 -6.15355 -5.63061
upperneck 4.89542 -8.53806 11.9615
head 3.87308 -3.83531 3.99988
rclavicle -3.89121e-014 -4.96962e-015
rhumerus -29.4385 -10.9517 -82.0941
rradius 27.7356
rwrist -2.66095
rhand -24.9686 4.50843
rfingers 7.12502
rthumb 1.54194 -25.4657
lclavicle -3.89121e-014 -4.96962e-015
lhumerus -32.1096 10.3324 81.387
lradius 27.3845
lwrist 11.1132
lhand -17.3252 16.646
lfingers 7.12502
lthumb 8.92159 46.4374
rfemur -7.77396 -12.9104 26.9626
rtibia 30.8363
rfoot -26.8653 -10.2319
rtoes 22.5204
lfemur -12.8561 4.98459 -11.5208
ltibia 31.1566
lfoot -12.6226 -0.363999
ltoes -20.5805
5
root 48.3876 16.6513 -8.4936 8.41588 -75.0091 -9.06049
lowerback -2.32043 1.20463 2.5995
upperback 4.41989 1.41302 0.320117
thorax 5.94332 0.790369 -1.01934
lowerneck -9.99568 -6.14188 -5.60959
upperneck 4.96374 -8.53332 11.9708
head 3.89112 -3.83063 3.99945
rclavicle -2.16178e-014 1.51076e-014
rhumerus -29.3843 -11.0112 -82.042
rradius 27.634
rwrist -2.58516
rhand -24.978 4.52394
rfingers 7.12502
rthumb 1.53285 -25.4503
lclavicle -2.16178e-014 1.51076e-014
lhumerus -32.1275 10.5133 81.3682
lradius 27.2961
lwrist 10.9501
lhand -17.3105 16.6093
lfingers 7.12502
lthumb 8.93571 46.4001
rfemur -7.72047 -12.9169 27.02
rtibia 30.8643
rfoot -26.8805 -10.2516
rtoes 22.4425
lfemur -13.0585 5.24479 -11.5021
ltibia 31.7922
lfoot -12.9093 -0.239764
ltoes -21.2825
6
root 48.3882 16.6479 -8.50009 8.49434 -75.0244 -9.21611
lowerback -2.30495 1.20754 2.6273
upperback 4.45474 1.41318 0.343132
thorax 5.97151 0.791294 -1.01082
lowerneck -9.98735 -6.12834 -5.58652
upperneck 5.04129 -8.52743 11.9817
head 3.91219 -3.82494 3.99915
rclavicle 1.08089e-015 5.46658e-015
rhumerus -29.3351 -11.074 -81.9921
rradius 27.5404
rwrist -2.5117
rhand -24.9943 4.53667
rfingers 7.12502
rthumb 1.51704 -25.4377
lclavicle 1.08089e-015 5.46658e-015
lhumerus -32.136 10.7128 81.3388
lradius 27.1743
lwrist 10.744
lhand -17.2865 16.562
lfingers 7.12502
lthumb 8.95888 46.3518
rfemur -7.65916 -12.8952 27.0738
rtibia 30.8839
rfoot -26.899 -10.289
rtoes 22.3586
lfemur -13.2559 5.50657 -11.4962
ltibia 32.4528
lfoot -13.1585 -0.159598
ltoes -21.9022
